<?xml version="1.0" encoding="UTF-8"?>
<svg width="15px" height="14px" viewBox="0 0 15 14" version="1.1" xmlns="http://www.w3.org/2000/svg" xmlns:xlink="http://www.w3.org/1999/xlink">
    <title>diamond-outline</title>
    <g id="Mining" stroke="none" stroke-width="1" fill="none" fill-rule="evenodd" stroke-linecap="round" stroke-linejoin="round">
        <g id="Heli---Mining" transform="translate(-101, -326)" stroke="#3E30E4">
            <g id="diamond-outline" transform="translate(102, 327)">
                <path d="M0.0989367558,4.04453622 L6.11144466,11.8174535 C6.20001062,11.9325326 6.33724466,12 6.48275862,12 C6.62827258,12 6.76550662,11.9325326 6.85407259,11.8174535 L12.8665805,4.04453622 C12.9876226,3.88746016 12.9985683,3.67213436 12.8940745,3.50366857 L10.8545971,0.222404781 C10.7692276,0.0843382622 10.6182135,0.000182734578 10.4554997,0 L2.51001754,0 C2.34730374,0.000182734578 2.19628967,0.0843382622 2.11092015,0.222404781 L0.0714427365,3.50366857 C-0.0330510343,3.67213436 -0.0221053406,3.88746016 0.0989367558,4.04453622 Z M0.463015453,3.72790007 L12.5025018,3.72790007" id="Shape"></path>
                <path d="M10.6206897,0.463448276 L9.24137931,3.70758621 L6.48275862,0 M2.34482759,0.463448276 L3.72413793,3.70758621 L6.48275862,0 M6.48275862,11.5862069 L3.72413793,3.70758621 M6.48275862,11.5862069 L9.24137931,3.70758621" id="Shape"></path>
            </g>
        </g>
    </g>
</svg>