<?xml version="1.0" encoding="UTF-8"?>
<svg width="24px" height="22px" viewBox="0 0 24 22" version="1.1" xmlns="http://www.w3.org/2000/svg" xmlns:xlink="http://www.w3.org/1999/xlink">
    <title>home (1)</title>
    <g id="Mining" stroke="none" stroke-width="1" fill="none" fill-rule="evenodd">
        <g id="Heli---Home" transform="translate(-44, -885)" fill="#858585" fill-rule="nonzero">
            <g id="home-(1)" transform="translate(44, 885)">
                <path d="M11.947373,3.47588725 C11.7955468,3.33116684 11.5563004,3.33116684 11.4044742,3.47588725 L2.36761468,12.078115 C2.29005975,12.1520401 2.24624889,12.2543739 2.24637056,12.361318 L2.24489796,20.4348025 C2.24489796,21.2992372 2.94815746,22 3.81567202,22 L8.53290287,22 C8.96666015,22 9.3182899,21.6496186 9.3182899,21.2174012 L9.3182899,14.5653117 C9.3182899,14.3492031 9.49410478,14.1740124 9.71098342,14.1740124 L13.6379186,14.1740124 C13.8547972,14.1740124 14.0306121,14.3492031 14.0306121,14.5653117 L14.0306121,21.2174012 C14.0306121,21.6496186 14.3822418,22 14.8159991,22 L19.5312665,22 C20.3987811,22 21.1020408,21.2992372 21.1020408,20.4348025 L21.1020408,12.361318 C21.1020408,12.2543739 21.0583514,12.1520401 20.9807964,12.078115 L11.947373,3.47588725 Z" id="Path"></path>
                <path d="M23.3214343,10.5162589 L19.6482291,6.96903532 L19.6482291,1.5862375 C19.6482291,1.14821011 19.2964537,0.79311875 18.8625167,0.79311875 L16.5053797,0.79311875 C16.0714427,0.79311875 15.7196673,1.14821011 15.7196673,1.5862375 L15.7196673,3.172475 L12.8753886,0.427292727 C12.6092286,0.155649555 12.213426,0 11.7857038,0 C11.3594549,0 10.9646344,0.155649555 10.6984744,0.427788426 L0.253410837,10.5152675 C-0.0520348376,10.8126871 -0.0903383145,11.3019422 0.187607428,11.6241467 C0.328660457,11.7885066 0.530381079,11.8871966 0.745581275,11.8971303 C0.96078147,11.9070639 1.17058325,11.8273699 1.32590819,11.6766908 L11.5156152,1.84796669 C11.6675042,1.70130089 11.9068498,1.70130089 12.0587389,1.84796669 L22.249428,11.6766908 C22.5619769,11.9792431 23.0581153,11.9694884 23.3587556,11.65488 C23.6602727,11.3396153 23.6352282,10.8191312 23.3214343,10.5162589 Z" id="Path"></path>
            </g>
        </g>
    </g>
</svg>