<svg width="838" height="519" viewBox="0 0 838 519" fill="none" xmlns="http://www.w3.org/2000/svg">
<g clip-path="url(#clip0_129_3791)">
<rect x="100" y="161" width="278" height="265" fill="white"/>
<path d="M674.706 0.765503C679.195 1.21995 683.554 1.73932 684.465 1.93408C685.376 2.12885 687.263 2.45345 688.695 2.71313C704.44 5.30999 723.634 11.7372 738.795 19.4629C767.358 33.9403 794.685 59.7141 809 85.6827C809.911 87.3706 811.407 89.9675 812.188 91.4607C813.489 93.8628 815.962 99.1863 819.475 107.237C821.753 112.56 826.242 127.167 827.673 134.114C830.536 148.072 831.773 156.057 833.399 170.535C838.8 218.447 839.58 316.219 835.026 383.023C833.92 399.967 831.252 417.691 827.869 430.545C818.89 464.759 796.637 491.766 764.951 506.828C736.062 520.591 705.286 522.734 675.682 512.995C656.552 506.763 638.594 494.558 624.54 478.262C620.051 473.004 584.916 426.52 584.916 425.806C584.916 425.546 554.466 379.921 558.5 398.5C576.523 388.957 573.204 356.36 588.95 340C596.497 332.209 579.45 322.581 584.916 315.764C599.295 297.651 616.342 329.126 624.54 309C625.777 305.949 624.02 283.888 624.54 282.849C626.623 278.045 604.243 275.791 606 268C608.212 258.327 605.089 249.609 606 243.442C607.887 231.496 629.87 223.128 630 213L643.409 206.501L650.241 199.23L585.762 199.1L585.306 207.021C583.94 230.912 578.214 253.05 568.194 272.786C556.808 295.379 580.561 346.36 560 358.5C597.43 398.413 470.89 444.5 470.5 444.5C470.045 444.5 506.968 323.36 501.307 315.764C495.582 308.233 490.767 301.871 490.572 301.676C490.376 301.481 484 293.042 476.387 282.849C468.775 272.656 461.813 263.373 460.902 262.269C459.991 261.1 477.397 260.154 470.5 251C463.538 241.781 808.347 380.058 365.847 460.558C364.091 458.481 252 426.131 252 425.806C252 425.611 420.692 203.905 422.774 201.178C424.856 198.451 428.109 194.101 429.996 191.634C431.883 189.102 433.835 186.571 434.355 185.921C434.941 185.272 439.626 178.975 444.896 171.963C450.166 164.887 460.056 151.838 466.823 142.943C473.525 133.984 489.791 112.56 502.804 95.2261C515.882 77.8921 528.504 61.5319 530.912 58.8701C533.254 56.2084 535.792 53.2869 536.507 52.4429C539.175 49.2618 552.383 37.6408 559.215 32.577C563.119 29.5906 569.105 25.5655 572.488 23.5529C578.344 19.9822 591.943 13.1655 595.326 12.1267C596.237 11.8021 598.97 10.8283 601.507 9.85449C623.434 1.67439 650.306 -1.63659 674.706 0.765503Z" fill="#6156E8"/>
<path d="M537.375 307.014C514.17 440.319 365.536 495.558 202.364 400.5C35.5828 303.34 406.482 581.706 584.66 454.467C585.545 453.835 586.342 453.097 587.008 452.237C599.666 435.891 622.295 389.126 633.303 351.278C635.439 343.935 643.146 339.507 650.431 341.833L675.092 349.708C684.585 352.739 693.818 344.401 691.768 334.649L657.289 170.673C655.403 161.705 645.078 157.451 637.421 162.488L493.479 257.197C484.67 262.993 486.064 276.314 495.882 280.161L529.465 293.318C534.994 295.485 538.393 301.164 537.375 307.014Z" fill="white"/>
<path d="M163.294 0.765502C158.805 1.21995 154.446 1.73932 153.535 1.93408C152.624 2.12885 150.737 2.45345 149.305 2.71313C133.56 5.30999 114.366 11.7372 99.2054 19.4629C70.6418 33.9403 43.3145 59.7141 29.0002 85.6827C28.0893 87.3706 26.5928 89.9675 25.812 91.4607C24.5107 93.8628 22.0383 99.1863 18.5248 107.237C16.2475 112.56 11.758 127.167 10.3266 134.114C7.4637 148.072 6.22747 156.057 4.60084 170.535C-0.799556 218.447 -1.58034 316.219 2.97422 383.023C4.08032 399.967 6.74799 417.691 10.1314 430.545C19.1103 464.759 41.3626 491.766 73.0492 506.828C101.938 520.591 132.714 522.734 162.318 512.995C181.448 506.763 199.406 494.558 213.46 478.262C217.949 473.004 253.084 426.52 253.084 425.806C253.084 425.546 251.262 424.313 249.05 423.079C231.027 413.536 210.336 397.63 194.591 381.27C187.043 373.479 184.831 370.947 179.365 364.131C164.986 346.018 152.168 324.399 143.97 304.273C142.734 301.222 141.368 297.846 140.847 296.807C138.765 292.003 132.323 271.163 130.567 263.373C128.355 253.699 127.509 249.739 126.598 243.572C124.711 231.626 123.605 219.616 123.475 209.488L123.279 199.425L187.759 199.23L252.238 199.1L252.694 207.021C254.06 230.912 259.786 253.05 269.806 272.786C281.192 295.379 298.369 313.946 318.93 326.087C322.248 328.034 325.241 329.592 325.632 329.592C326.087 329.592 331.032 323.36 336.693 315.764C342.418 308.233 347.233 301.871 347.428 301.676C347.624 301.481 354 293.042 361.613 282.849C369.225 272.656 376.187 263.373 377.098 262.269C378.009 261.1 384.45 252.596 391.347 243.442C398.309 234.223 404.165 226.367 404.49 226.043C406.247 223.965 419 206.826 419 206.501C419 206.307 417.308 203.905 415.226 201.178C413.144 198.451 409.891 194.101 408.004 191.634C406.117 189.102 404.165 186.571 403.645 185.921C403.059 185.272 398.374 178.975 393.104 171.963C387.834 164.887 377.944 151.838 371.177 142.943C364.475 133.984 348.209 112.56 335.196 95.2261C322.118 77.8921 309.496 61.5319 307.088 58.8702C304.746 56.2084 302.208 53.2869 301.493 52.4429C298.825 49.2618 285.617 37.6408 278.785 32.577C274.881 29.5906 268.895 25.5655 265.512 23.5529C259.656 19.9822 246.057 13.1655 242.674 12.1267C241.763 11.8021 239.03 10.8283 236.493 9.85449C214.566 1.67439 187.694 -1.63659 163.294 0.765502Z" fill="#3E30E4"/>
</g>
<defs>
<clipPath id="clip0_129_3791">
<rect width="838" height="519" fill="white"/>
</clipPath>
</defs>
</svg>
