<?xml version="1.0" encoding="UTF-8"?>
<svg width="23px" height="19px" viewBox="0 0 23 19" version="1.1" xmlns="http://www.w3.org/2000/svg" xmlns:xlink="http://www.w3.org/1999/xlink">
    <title>Group (2)</title>
    <g id="Mining" stroke="none" stroke-width="1" fill="none" fill-rule="evenodd">
        <g id="Heli---Home" transform="translate(-363, -887)" fill="#858585" fill-rule="nonzero">
            <g id="Group-(2)" transform="translate(363, 887)">
                <path d="M16.6497761,12.581294 C16.4766761,11.404694 15.8875761,10.329194 14.9892761,9.549794 C14.0910761,8.770454 12.9431761,8.338864 11.7539761,8.333344 L10.6456761,8.333344 C9.45644608,8.338864 8.30859608,8.770454 7.41035608,9.549794 C6.51210608,10.329194 5.92297608,11.404694 5.74982608,12.581294 L5.21857608,16.295894 C5.20159608,16.415894 5.21281608,16.538294 5.25132608,16.653294 C5.28983608,16.768294 5.35458608,16.872694 5.44044608,16.958394 C5.64877608,17.166694 6.92690608,18.229194 11.2008761,18.229194 C15.4747761,18.229194 16.7497761,17.170894 16.9612761,16.958394 C17.0471761,16.872694 17.1118761,16.768294 17.1503761,16.653294 C17.1888761,16.538294 17.2001761,16.415894 17.1831761,16.295894 L16.6497761,12.581294 Z M6.57377608,8.906264 C5.56704608,9.834294 4.91200608,11.081894 4.71961608,12.437494 L4.33419608,15.104194 C1.24044608,15.083394 0.302947077,13.958394 0.146697077,13.729194 C0.0862990775,13.645894 0.0431980775,13.551394 0.0199400775,13.451194 C-0.00331892251,13.350994 -0.00626292251,13.247194 0.0112800775,13.145894 L0.240447077,11.854194 C0.359845077,11.179094 0.640261077,10.542794 1.05791608,9.999194 C1.47557608,9.455594 2.01815608,9.020704 2.63966608,8.731424 C3.26116608,8.442134 3.94326608,8.306984 4.62811608,8.337424 C5.31297608,8.367854 5.98038608,8.562984 6.57377608,8.906264 Z M22.3862761,13.145894 C22.4037761,13.247194 22.4008761,13.350994 22.3775761,13.451194 C22.3543761,13.551394 22.3112761,13.645894 22.2508761,13.729194 C22.0945761,13.958394 21.1570761,15.083394 18.0633761,15.104194 L17.6779761,12.437494 C17.4855761,11.081894 16.8304761,9.834294 15.8237761,8.906264 C16.4171761,8.562984 17.0845761,8.367854 17.7694761,8.337424 C18.4542761,8.306984 19.1363761,8.442134 19.7578761,8.731424 C20.3793761,9.020704 20.9219761,9.455594 21.3396761,9.999194 C21.7572761,10.542794 22.0376761,11.179094 22.1570761,11.854194 L22.3862761,13.145894 Z M6.75086608,6.614594 C6.48865608,6.986464 6.14055608,7.289554 5.73614608,7.498104 C5.33173608,7.706654 4.88296608,7.814514 4.42794608,7.81254131 C3.97404608,7.81254131 3.52664608,7.704654 3.12261608,7.497814 C2.71857608,7.290984 2.36947608,6.991104 2.10407608,6.622884 C1.83867608,6.254654 1.66457608,5.828644 1.59612608,5.379934 C1.52767608,4.931224 1.56682608,4.472674 1.71036608,4.042064 C1.85389608,3.611464 2.09770608,3.221124 2.42169608,2.903234 C2.74567608,2.585334 3.14056608,2.348984 3.57381608,2.213644 C4.00707608,2.078304 4.46628608,2.047864 4.91361608,2.124814 C5.36093608,2.201774 5.78357608,2.383924 6.14669608,2.656264 C6.04225608,3.064704 5.98975608,3.484684 5.99044608,3.906264 C5.99124608,4.861624 6.25426608,5.798434 6.75086608,6.614594 Z M20.834177,4.947934 C20.8344761,5.324184 20.7605761,5.696814 20.6166761,6.044484 C20.4728761,6.392154 20.2618761,6.708054 19.9957761,6.974104 C19.7297761,7.240164 19.4138761,7.451154 19.0661761,7.595014 C18.7184761,7.738874 18.3458761,7.812784 17.9695761,7.81254131 C17.5145761,7.814514 17.0657761,7.706654 16.6613761,7.498104 C16.2569761,7.289554 15.9088761,6.986464 15.6466761,6.614594 C16.1432761,5.798434 16.4062761,4.861624 16.4070761,3.906264 C16.4077761,3.484684 16.3552761,3.064704 16.2508761,2.656264 C16.6764761,2.337074 17.1824761,2.142694 17.7123761,2.094924 C18.2421761,2.047144 18.7748761,2.147854 19.2506761,2.385764 C19.7264761,2.623684 20.1266761,2.989394 20.4063761,3.441924 C20.6860761,3.894464 20.834177,4.415944 20.834177,4.947934 Z" id="Shape"></path>
                <path d="M11.1987761,7.812504 C13.3561761,7.812504 15.1049761,6.063614 15.1049761,3.906254 C15.1049761,1.748884 13.3561761,0 11.1987761,0 C9.04141608,0 7.29252608,1.748884 7.29252608,3.906254 C7.29252608,6.063614 9.04141608,7.812504 11.1987761,7.812504 Z" id="Path"></path>
            </g>
        </g>
    </g>
</svg>