<?xml version="1.0" encoding="UTF-8"?>
<svg width="25px" height="25px" viewBox="0 0 25 25" version="1.1" xmlns="http://www.w3.org/2000/svg" xmlns:xlink="http://www.w3.org/1999/xlink">
    <title>Group (1)</title>
    <g id="Mining" stroke="none" stroke-width="1" fill="none" fill-rule="evenodd">
        <g id="Heli---Home" transform="translate(-286, -884)" fill="#858585" fill-rule="nonzero">
            <g id="Group-(1)" transform="translate(286, 884)">
                <path d="M15.800192,5.44258983 L13.728792,3.36977983 C12.968892,2.61167983 11.805992,2.56465983 10.951992,3.15107983 C8.899322,1.70654983 6.450202,0.173005829 6.339502,0.106306829 C5.991892,-0.103996171 5.541992,0.0076248288 5.333842,0.353767829 C5.124272,0.699959829 5.235162,1.15053983 5.581302,1.35942983 C5.606792,1.37534983 7.873442,2.79648983 9.835592,4.15664983 L9.585292,4.40688983 C8.729152,5.26303983 8.729152,6.65635983 9.585292,7.51396983 L11.657392,9.58539983 C12.517492,10.4454998 13.906792,10.4429998 14.764492,9.58539983 L15.014592,9.33530983 C16.374392,11.2962998 17.747692,13.5645998 17.763492,13.5900998 C17.971592,13.9346998 18.420592,14.0474998 18.769192,13.8375998 C19.115392,13.6286998 19.226192,13.1787998 19.016692,12.8325998 C18.949992,12.7211998 17.464492,10.2709998 16.019692,8.21860983 C16.606092,7.36347983 16.559392,6.20180983 15.800192,5.44258983 Z M18.359392,17.6269998 C14.711892,17.6269998 11.767592,16.6454998 11.767592,15.4296998 L11.767592,18.3593998 C11.767592,19.5751998 14.711892,20.5565998 18.359392,20.5565998 C22.006792,20.5565998 24.999992,19.5751998 24.999992,18.3593998 L24.999992,15.4296998 C24.999992,16.6454998 22.006792,17.6269998 18.359392,17.6269998 Z" id="Shape"></path>
                <path d="M18.359392,22.0214998 C14.711892,22.0214998 11.767592,21.0399998 11.767592,19.8241998 L11.767592,22.7538998 C11.767592,23.9696998 14.711892,24.9999998 18.359392,24.9999998 C22.006792,24.9999998 24.999992,23.9696998 24.999992,22.7538998 L24.999992,19.8241998 C24.999992,21.0399998 22.006792,22.0214998 18.359392,22.0214998 Z M20.138692,11.8588998 C20.215992,11.9854998 20.270792,12.0757998 20.273392,12.0801998 C20.893892,13.1054998 20.572592,14.4607998 19.525892,15.0921998 C18.470092,15.7291998 17.123192,15.3643998 16.509692,14.3475998 C16.338992,14.0671998 15.773392,13.1454998 15.078392,12.0695998 C13.108292,12.4494998 11.767592,13.1515998 11.767592,13.9648998 C11.767592,15.1783998 14.718792,16.1620998 18.359392,16.1620998 C21.999992,16.1620998 24.999992,15.1783998 24.999992,13.9648998 C24.999992,12.9582998 22.908692,12.1189998 20.138692,11.8588998 Z M0.214602,17.8896998 L1.250292,18.9260998 C1.536232,19.2119998 1.999802,19.2122998 2.285982,18.9260998 L10.606392,10.6056998 L8.549662,8.54966983 C8.544482,8.54448983 8.541162,8.53823983 8.536082,8.53301983 L0.214602,16.8539998 C-0.071534,17.1400998 -0.071534,17.6035998 0.214602,17.8896998 Z" id="Shape"></path>
            </g>
        </g>
    </g>
</svg>