<?xml version="1.0" encoding="UTF-8"?>
<svg width="25px" height="22px" viewBox="0 0 25 22" version="1.1" xmlns="http://www.w3.org/2000/svg" xmlns:xlink="http://www.w3.org/1999/xlink">
    <title>Group</title>
    <g id="Mining" stroke="none" stroke-width="1" fill="none" fill-rule="evenodd">
        <g id="Heli---Home" transform="translate(-120, -885)" fill="#858585" fill-rule="nonzero">
            <g id="Group" transform="translate(120, 885)">
                <path d="M24.6400037,17.6 L24.6400037,19.8 C24.6400037,21.0135 23.6526037,22 22.4400037,22 L3.5200037,22 C1.5787237,22 0,20.4213 0,18.48 L0,3.52 C0,1.57872 1.5787237,0 3.5200037,0 L19.8000037,0 C19.9733037,0 20.1450037,0.0341427 20.3051037,0.100479 C20.4653037,0.166815 20.6108037,0.264046 20.7334037,0.386619 C20.8560037,0.509192 20.9532037,0.654708 21.0195037,0.814858 C21.0859037,0.975008 21.1200037,1.14666 21.1200037,1.32 C21.1200037,1.49334 21.0859037,1.66499 21.0195037,1.82514 C20.9532037,1.98529 20.8560037,2.13081 20.7334037,2.25338 C20.6108037,2.37595 20.4653037,2.47318 20.3051037,2.53952 C20.1450037,2.60586 19.9733037,2.64 19.8000037,2.64 L3.5200037,2.64 C3.2934137,2.65014 3.0794737,2.74728 2.9227237,2.9112 C2.7659737,3.07512 2.6784837,3.29319 2.6784837,3.52 C2.6784837,3.74681 2.7659737,3.96488 2.9227237,4.1288 C3.0794737,4.29272 3.2934137,4.38986 3.5200037,4.4 L22.4400037,4.4 C23.6526037,4.4 24.6400037,5.38648 24.6400037,6.6 L24.6400037,8.8 L20.2400037,8.8 C17.8138037,8.8 15.8400037,10.7738 15.8400037,13.2 C15.8400037,15.6262 17.8138037,17.6 20.2400037,17.6 L24.6400037,17.6 Z" id="Path"></path>
                <path d="M24.6400037,10.5601 L24.6400037,15.8401 L20.2400037,15.8401 C19.5398037,15.8401 18.8683037,15.562 18.3732037,15.0669 C17.8781037,14.5718 17.6000037,13.9003 17.6000037,13.2001 C17.6000037,12.4999 17.8781037,11.8285 18.3732037,11.3334 C18.8683037,10.8383 19.5398037,10.5601 20.2400037,10.5601 L24.6400037,10.5601 Z" id="Path"></path>
            </g>
        </g>
    </g>
</svg>